<svg width="40" height="40" viewBox="0 0 40 40" fill="none" xmlns="http://www.w3.org/2000/svg">
<path d="M20 6.66666C27.3517 6.66666 33.3333 12.6483 33.3333 20C33.3333 27.3517 27.3517 33.3333 20 33.3333C12.6483 33.3333 6.66668 27.3517 6.66668 20C6.66668 12.6483 12.6483 6.66666 20 6.66666ZM20 3.33333C10.795 3.33333 3.33334 10.795 3.33334 20C3.33334 29.205 10.795 36.6667 20 36.6667C29.205 36.6667 36.6667 29.205 36.6667 20C36.6667 10.795 29.205 3.33333 20 3.33333ZM28.3333 18.3333H21.6667V11.6667H18.3333V18.3333H11.6667V21.6667H18.3333V28.3333H21.6667V21.6667H28.3333V18.3333Z" fill="white"/>
</svg>
