<svg width="40" height="40" viewBox="0 0 40 40" fill="none" xmlns="http://www.w3.org/2000/svg">
<path d="M21.6667 5C17.6884 5 13.8731 6.58035 11.0601 9.3934C8.24701 12.2064 6.66666 16.0218 6.66666 20H1.66666L8.14999 26.4833L8.26666 26.7167L15 20H9.99999C9.99999 13.55 15.2167 8.33333 21.6667 8.33333C28.1167 8.33333 33.3333 13.55 33.3333 20C33.3333 26.45 28.1167 31.6667 21.6667 31.6667C18.45 31.6667 15.5333 30.35 13.4333 28.2333L11.0667 30.6C12.4557 31.9967 14.1075 33.1046 15.9268 33.8597C17.7461 34.6149 19.6969 35.0025 21.6667 35C25.6449 35 29.4602 33.4196 32.2733 30.6066C35.0863 27.7936 36.6667 23.9782 36.6667 20C36.6667 16.0218 35.0863 12.2064 32.2733 9.3934C29.4602 6.58035 25.6449 5 21.6667 5ZM20 13.3333V21.6667L27.1333 25.9L28.3333 23.8833L22.5 20.4167V13.3333H20Z" fill="white"/>
</svg>
