<svg width="20" height="23" viewBox="0 0 20 23" fill="none" xmlns="http://www.w3.org/2000/svg">
<path d="M18.8889 4.44444H14.4444V3.33333C14.4444 2.44928 14.0933 1.60143 13.4681 0.976311C12.843 0.35119 11.9952 0 11.1111 0H8.88889C8.00483 0 7.15699 0.35119 6.53187 0.976311C5.90674 1.60143 5.55556 2.44928 5.55556 3.33333V4.44444H1.11111C0.816426 4.44444 0.533811 4.56151 0.325437 4.76988C0.117063 4.97826 0 5.26087 0 5.55556C0 5.85024 0.117063 6.13286 0.325437 6.34123C0.533811 6.5496 0.816426 6.66667 1.11111 6.66667H2.22222V18.8889C2.22222 19.7729 2.57341 20.6208 3.19853 21.2459C3.82365 21.871 4.6715 22.2222 5.55556 22.2222H14.4444C15.3285 22.2222 16.1763 21.871 16.8015 21.2459C17.4266 20.6208 17.7778 19.7729 17.7778 18.8889V6.66667H18.8889C19.1836 6.66667 19.4662 6.5496 19.6746 6.34123C19.8829 6.13286 20 5.85024 20 5.55556C20 5.26087 19.8829 4.97826 19.6746 4.76988C19.4662 4.56151 19.1836 4.44444 18.8889 4.44444ZM7.77778 3.33333C7.77778 3.03865 7.89484 2.75603 8.10322 2.54766C8.31159 2.33929 8.5942 2.22222 8.88889 2.22222H11.1111C11.4058 2.22222 11.6884 2.33929 11.8968 2.54766C12.1052 2.75603 12.2222 3.03865 12.2222 3.33333V4.44444H7.77778V3.33333ZM15.5556 18.8889C15.5556 19.1836 15.4385 19.4662 15.2301 19.6746C15.0217 19.8829 14.7391 20 14.4444 20H5.55556C5.26087 20 4.97826 19.8829 4.76988 19.6746C4.56151 19.4662 4.44444 19.1836 4.44444 18.8889V6.66667H15.5556V18.8889Z" fill="white"/>
</svg>
